<?xml version="1.0" encoding="UTF-8" standalone="no"?>
<!-- Created with Inkscape (http://www.inkscape.org/) -->

<svg
   xmlns:dc="http://purl.org/dc/elements/1.1/"
   xmlns:cc="http://creativecommons.org/ns#"
   xmlns:rdf="http://www.w3.org/1999/02/22-rdf-syntax-ns#"
   xmlns:svg="http://www.w3.org/2000/svg"
   xmlns="http://www.w3.org/2000/svg"
   version="1.1"
   width="512"
   height="512"
   id="svg3061">
  <defs
     id="defs3063" />
  <metadata
     id="metadata3066">
    <rdf:RDF>
      <cc:Work
         rdf:about="">
        <dc:format>image/svg+xml</dc:format>
        <dc:type
           rdf:resource="http://purl.org/dc/dcmitype/StillImage" />
        <dc:title></dc:title>
      </cc:Work>
    </rdf:RDF>
  </metadata>
  <g
     transform="translate(-112.1752,-264.83869)"
     id="layer1">
    <g
       transform="matrix(3.7372263,0,0,3.7372263,-879.18383,-1549.3869)"
       id="g2996">
      <path
         d="m 265.26599,601.44708 0,-21 21,0 21,0 0,21 0,21 -21,0 -21,0 0,-21 z m 48,0 0,-21 20.5,0 20.5,0 0,21 0,21 -20.5,0 -20.5,0 0,-21 z m 47,0 0,-21 21,0 21,0 0,21 0,21 -21,0 -21,0 0,-21 z m -95,-47.5 0,-20.5 21,0 21,0 0,20.5 0,20.5 -21,0 -21,0 0,-20.5 z m 48,0 0,-20.5 20.5,0 20.5,0 0,20.5 0,20.5 -20.5,0 -20.5,0 0,-20.5 z m 47,0 0,-20.5 21,0 21,0 0,20.5 0,20.5 -21,0 -21,0 0,-20.5 z m -95,-47.5 0,-21 21,0 21,0 0,21 0,21 -21,0 -21,0 0,-21 z m 48,0 0,-21 20.5,0 20.5,0 0,21 0,21 -20.5,0 -20.5,0 0,-21 z m 47,0 0,-21 21,0 21,0 0,21 0,21 -21,0 -21,0 0,-21 z"
         id="path3008"
         style="fill:#d500ca" />
      <path
         d="m 265.26599,601.44708 0,-21 21,0 21,0 0,21 0,21 -21,0 -21,0 0,-21 z m 95,0 0,-21 21,0 21,0 0,21 0,21 -21,0 -21,0 0,-21 z m -47,-47.5 0,-20.5 20.5,0 20.5,0 0,20.5 0,20.5 -20.5,0 -20.5,0 0,-20.5 z m 47,0 0,-20.5 21,0 21,0 0,20.5 0,20.5 -21,0 -21,0 0,-20.5 z m -95,-47.5 0,-21 21,0 21,0 0,21 0,21 -21,0 -21,0 0,-21 z m 48,0 0,-21 20.5,0 20.5,0 0,21 0,21 -20.5,0 -20.5,0 0,-21 z m 47,0 0,-21 21,0 21,0 0,21 0,21 -21,0 -21,0 0,-21 z"
         id="path3006"
         style="fill:#0eb1ca" />
      <path
         d="m 265.26599,601.44708 0,-21 21,0 21,0 0,21 0,21 -21,0 -21,0 0,-21 z m 95,0 0,-21 21,0 21,0 0,21 0,21 -21,0 -21,0 0,-21 z m -47,-47.5 0,-20.5 20.5,0 20.5,0 0,20.5 0,20.5 -20.5,0 -20.5,0 0,-20.5 z m 0,-47.5 0,-21 20.5,0 20.5,0 0,21 0,21 -20.5,0 -20.5,0 0,-21 z m 47,0 0,-21 21,0 21,0 0,21 0,21 -21,0 -21,0 0,-21 z"
         id="path3004"
         style="fill:#8bbe25" />
      <path
         d="m 360.26599,601.44708 0,-21 21,0 21,0 0,21 0,21 -21,0 -21,0 0,-21 z m -47,-47.5 0,-20.5 20.5,0 20.5,0 0,20.5 0,20.5 -20.5,0 -20.5,0 0,-20.5 z m 0,-47.5 0,-21 20.5,0 20.5,0 0,21 0,21 -20.5,0 -20.5,0 0,-21 z m 47,0 0,-21 21,0 21,0 0,21 0,21 -21,0 -21,0 0,-21 z"
         id="path3002"
         style="fill:#e72700" />
      <path
         d="m 313.26599,506.44708 0,-21 20.5,0 20.5,0 0,21 0,21 -20.5,0 -20.5,0 0,-21 z m 47,0 0,-21 21,0 21,0 0,21 0,21 -21,0 -21,0 0,-21 z"
         id="path3000"
         style="fill:#329832" />
      <path
         d="m 360.26599,506.44708 0,-21 21,0 21,0 0,21 0,21 -21,0 -21,0 0,-21 z"
         id="path2998"
         style="fill:#9f4f00" />
    </g>
  </g>
</svg>
